<svg height='64px' width='64px'  fill="#000000" xmlns="http://www.w3.org/2000/svg" xmlns:xlink="http://www.w3.org/1999/xlink" version="1.1" x="0px" y="0px" viewBox="0 0 100 100" style="enable-background:new 0 0 100 100;" xml:space="preserve"><g><path d="M50.7,93.9C26.5,93.9,6.8,74.2,6.8,50S26.5,6.1,50.7,6.1S94.6,25.8,94.6,50S74.9,93.9,50.7,93.9z M50.7,9.9   c-22.1,0-40.1,18-40.1,40.1c0,22.1,18,40.1,40.1,40.1s40.1-18,40.1-40.1C90.8,27.9,72.8,9.9,50.7,9.9z"></path></g><g><g><path d="M61.3,67.3H40.1c-3.4,0-6.1-2.7-6.1-6.1V38.8c0-3.4,2.7-6.1,6.1-6.1h21.2c3.4,0,6.1,2.7,6.1,6.1v22.3    C67.4,64.5,64.7,67.3,61.3,67.3z"></path></g></g></svg>