<svg height='64px' width='64px'  fill="#000000" xmlns="http://www.w3.org/2000/svg" xmlns:xlink="http://www.w3.org/1999/xlink" version="1.1" x="0px" y="0px" viewBox="0 0 96 96" enable-background="new 0 0 96 96" xml:space="preserve"><path d="M58.832,48c9.287-9.287,18.574-18.573,27.86-27.86c0.978-0.977,1.351-2.083,1.304-3.144c0.047-1.06-0.326-2.166-1.304-3.143  c-1.519-1.519-3.037-3.038-4.557-4.557c-1.712-1.712-4.574-1.712-6.286,0c-9.287,9.287-18.574,18.574-27.861,27.86  c-9.287-9.287-18.574-18.573-27.862-27.86c-1.712-1.712-4.574-1.712-6.287,0c-1.519,1.52-3.037,3.038-4.556,4.557  c-1.712,1.713-1.712,4.574,0,6.287C18.571,29.427,27.859,38.713,37.146,48c-9.287,9.286-18.575,18.573-27.862,27.86  c-1.712,1.712-1.712,4.573,0,6.286c1.519,1.519,3.038,3.038,4.556,4.557c1.712,1.713,4.574,1.713,6.287,0  c9.288-9.286,18.575-18.573,27.862-27.86c9.287,9.287,18.574,18.574,27.861,27.86c1.712,1.713,4.574,1.713,6.286,0  c1.52-1.519,3.038-3.038,4.557-4.557c1.713-1.713,1.713-4.574,0-6.286C77.406,66.573,68.119,57.286,58.832,48z"></path></svg>