<?xml version="1.0" encoding="utf-8"?>
<!-- Generator: Adobe Illustrator 24.1.1, SVG Export Plug-In . SVG Version: 6.00 Build 0)  -->
<svg version="1.1" id="Layer_1" xmlns="http://www.w3.org/2000/svg" xmlns:xlink="http://www.w3.org/1999/xlink" x="0px" y="0px"
	 viewBox="0 0 50 50" style="enable-background:new 0 0 50 50;" xml:space="preserve">
<style type="text/css">
	.st0{fill:#A7D9CD;}
</style>
<path class="st0" d="M23.1,4.1C11.5,5.1,3,15.4,4.1,26.9s11.3,20,22.8,19c10.1-0.9,18-8.9,19-19c1-11.6-7.5-21.8-19.1-22.8
	C25.6,4,24.3,4,23.1,4.1z M22.2,24h1.7v-7.4c0-0.6,0.4-1,1-1s1,0.4,1,1V24h1.7c0.5,0,0.9,0.4,0.6,0.8l-2.7,3.6
	c-0.3,0.3-0.8,0.4-1.1,0.1c0,0,0,0-0.1-0.1l-2.7-3.6C21.3,24.5,21.6,24,22.2,24z M35.9,30.4c0,2.2-1.8,4-4,4l0,0H18.1
	c-2.2,0-4-1.8-4-4v-3.9c0-0.6,0.4-1,1-1s1,0.4,1,1v3.9c0,1.1,0.9,2,2,2l0,0h13.8c1.1,0,2-0.9,2-2v-3.9c0-0.6,0.4-1,1-1s1,0.4,1,1
	V30.4z"/>
</svg>
