<svg height='64px' width='64px'  fill="#a7d9cd" xmlns="http://www.w3.org/2000/svg" data-name="Layer 1" viewBox="0 0 100 100" x="0px" y="0px"><title>Media Player</title><path d="M46.16,8.14a42,42,0,1,0,45.7,45.7A42.12,42.12,0,0,0,46.16,8.14ZM44.34,48h3.34V33.2a2,2,0,1,1,4,0V48H55c1,0,1.72.88,1.19,1.59l-5.34,7.14a1.6,1.6,0,0,1-2.38,0l-5.34-7.14C42.62,48.92,43.28,48,44.34,48ZM71.79,60.8a8,8,0,0,1-8,8H36.21a8,8,0,0,1-8-8V53.07a2,2,0,0,1,4,0V60.8a4,4,0,0,0,4,4H63.79a4,4,0,0,0,4-4V53.07a2,2,0,0,1,4,0Z"></path></svg>