<svg height='70px' width='70px'  fill="#a7d9cd" xmlns="http://www.w3.org/2000/svg" xmlns:xlink="http://www.w3.org/1999/xlink" version="1.1" x="0px" y="0px" viewBox="0 0 139 139" enable-background="new 0 0 139 139" xml:space="preserve"><path d="M41.134,82.171h4.894l10.555-16.459L67.14,82.171h5.393l-5.892-9.187l3.84-5.988l9.732,15.175h14.587V46.303H41.134V82.171z   M84.33,52.588c3.174,0,5.748,2.574,5.748,5.748s-2.574,5.748-5.748,5.748s-5.748-2.574-5.748-5.748S81.156,52.588,84.33,52.588z"></path><path d="M67.997,11.666c-31.94,0-57.833,25.894-57.833,57.834c0,31.939,25.893,57.835,57.833,57.835s57.836-25.896,57.836-57.835  C125.833,37.56,99.938,11.666,67.997,11.666z M101.333,96.353c0,1.534-1.243,2.777-2.778,2.777H37.443  c-1.535,0-2.778-1.243-2.778-2.777V42.647c0-1.534,1.243-2.777,2.778-2.777h61.111c1.535,0,2.778,1.243,2.778,2.777V96.353z"></path></svg>