<svg height='64px' width='64px'  fill="#000000" xmlns="http://www.w3.org/2000/svg" xmlns:xlink="http://www.w3.org/1999/xlink" version="1.1" x="0px" y="0px" viewBox="0 0 100 100" style="enable-background:new 0 0 100 100;" xml:space="preserve"><g><path d="M50.3,93.4c-24.2,0-43.9-19.7-43.9-43.9S26.1,5.6,50.3,5.6s43.9,19.7,43.9,43.9S74.5,93.4,50.3,93.4z M50.3,9.4   c-22.1,0-40.1,18-40.1,40.1c0,22.1,18,40.1,40.1,40.1s40.1-18,40.1-40.1C90.4,27.4,72.4,9.4,50.3,9.4z"></path></g><g><g><g><path d="M42.6,66.8h-2.6c-1.7,0-3.1-1.4-3.1-3.1V35.4c0-1.7,1.4-3.1,3.1-3.1h2.6c1.7,0,3.1,1.4,3.1,3.1v28.3     C45.7,65.4,44.3,66.8,42.6,66.8z"></path></g></g><g><g><path d="M60.6,66.8H58c-1.7,0-3.1-1.4-3.1-3.1V35.4c0-1.7,1.4-3.1,3.1-3.1h2.6c1.7,0,3.1,1.4,3.1,3.1v28.3     C63.7,65.4,62.3,66.8,60.6,66.8z"></path></g></g></g></svg>