<?xml version="1.0" encoding="utf-8"?>
<!-- Generator: Adobe Illustrator 24.1.1, SVG Export Plug-In . SVG Version: 6.00 Build 0)  -->
<svg version="1.1" id="Layer_1" xmlns="http://www.w3.org/2000/svg" xmlns:xlink="http://www.w3.org/1999/xlink" x="0px" y="0px"
	 viewBox="0 0 50 50" style="enable-background:new 0 0 50 50;" xml:space="preserve">
<style type="text/css">
	.st0{fill:#A7D9CD;}
</style>
<path class="st0" d="M25,4C13.4,4,4,13.4,4,25s9.4,21,21,21s21-9.4,21-21S36.6,4,25,4z M32.7,26.3l-10.1,5.8c-0.7,0.4-1.6,0.2-2-0.5
	c-0.1-0.2-0.2-0.5-0.2-0.8V19.2c0-0.8,0.7-1.5,1.5-1.5c0.3,0,0.5,0.1,0.8,0.2l10.1,5.8c0.7,0.4,1,1.3,0.6,2
	C33.1,26,32.9,26.2,32.7,26.3z"/>
</svg>
