<svg height='64px' width='64px'  fill="#000000" xmlns="http://www.w3.org/2000/svg" xmlns:xlink="http://www.w3.org/1999/xlink" version="1.1" x="0px" y="0px" viewBox="0 0 100 100" style="enable-background:new 0 0 100 100;" xml:space="preserve"><g><path d="M51.1,93.1c-24.2,0-43.9-19.7-43.9-43.9S26.9,5.3,51.1,5.3c24.2,0,43.9,19.7,43.9,43.9S75.4,93.1,51.1,93.1z M51.1,9.1   C29,9.1,11,27.1,11,49.2c0,22.1,18,40.1,40.1,40.1c22.1,0,40.1-18,40.1-40.1C91.3,27.1,73.3,9.1,51.1,9.1z"></path></g><g><path d="M65.3,47.2L47.7,32.5c-0.8-0.7-1.9-0.8-2.8-0.4c-0.9,0.4-1.5,1.4-1.5,2.4v29.4c0,1,0.6,1.9,1.5,2.4   c0.4,0.2,0.7,0.2,1.1,0.2c0.6,0,1.2-0.2,1.7-0.6l17.7-14.7c0.6-0.5,0.9-1.2,0.9-2S65.9,47.7,65.3,47.2z"></path></g></svg>