<svg height='64px' width='64px'  fill="#000000" xmlns="http://www.w3.org/2000/svg" data-name="Layer 1" viewBox="0 0 100 100" x="0px" y="0px"><title>Media Player</title><path d="M46.16,8.14a42,42,0,1,0,45.7,45.7A42.12,42.12,0,0,0,46.16,8.14ZM29.35,64.89a3,3,0,1,1,3-3A3,3,0,0,1,29.35,64.89Zm0-11.89a3,3,0,1,1,3-3A3,3,0,0,1,29.35,53Zm0-11.89a3,3,0,1,1,3-3A3,3,0,0,1,29.35,41.11Zm41.3,23.78H38.23a3,3,0,0,1,0-6H70.65a3,3,0,0,1,0,6Zm0-11.89H38.23a3,3,0,1,1,0-6H70.65a3,3,0,0,1,0,6Zm0-11.89H38.23a3,3,0,0,1,0-6H70.65a3,3,0,0,1,0,6Z"></path></svg>