<svg height='64px' width='64px'  fill="#000000" xmlns="http://www.w3.org/2000/svg" xmlns:xlink="http://www.w3.org/1999/xlink" version="1.1" x="0px" y="0px" viewBox="0 0 100 100" style="enable-background:new 0 0 100 100;" xml:space="preserve"><g><path d="M49.5,93.6c-24.2,0-43.9-19.7-43.9-43.9S25.3,5.7,49.5,5.7s43.9,19.7,43.9,43.9S73.7,93.6,49.5,93.6z M49.5,9.5   c-22.1,0-40.1,18-40.1,40.1c0,22.1,18,40.1,40.1,40.1c22.1,0,40.1-18,40.1-40.1C89.7,27.5,71.6,9.5,49.5,9.5z"></path></g><g><path d="M37.7,32.4h3.6c1.5,0,2.7,1.2,2.7,2.7v11l15.8-13.1c0.8-0.7,1.9-0.8,2.8-0.4C63.4,33,64,33.9,64,35v29.4   c0,1-0.6,1.9-1.5,2.4c-0.4,0.2-0.7,0.2-1.1,0.2c-0.6,0-1.2-0.2-1.7-0.6L43.9,53.2v11c0,1.5-1.2,2.7-2.7,2.7h-3.6   c-1.5,0-2.7-1.2-2.7-2.7V35C35,33.6,36.2,32.4,37.7,32.4z"></path></g></svg>