<svg height='100px' width='100px'  fill="#000000" xmlns="http://www.w3.org/2000/svg" xmlns:xlink="http://www.w3.org/1999/xlink" xml:space="preserve" version="1.1" style="shape-rendering:geometricPrecision;text-rendering:geometricPrecision;image-rendering:optimizeQuality;" viewBox="0 0 1128.88 1128.88" x="0px" y="0px" fill-rule="evenodd" clip-rule="evenodd"><defs><style type="text/css">
   
    .fil0 {fill:#000000}
   
  </style></defs><g><g><path class="fil0" d="M831.74 497.62l-200.74 0 0 -200.47c0,-36.88 -29.94,-66.83 -66.83,-66.83 -36.88,0 -66.83,29.95 -66.83,66.83l0 200.48 -200.19 -0.01c-36.89,0 -66.83,29.94 -66.83,66.82 0,36.89 29.94,66.83 66.83,66.83l200.21 0 0 200.48c0,36.89 29.94,66.83 66.83,66.83 36.88,0 66.82,-29.94 66.82,-66.83l0 -200.48 200.73 0c36.89,0 66.83,-29.94 66.83,-66.83 0,-36.88 -29.94,-66.82 -66.83,-66.82z"></path></g></g></svg>